# xmcd CD database file
#
# Track frame offsets:
#	150
#	4372
#	18072
#	26394
#	42330
#	51517
#	62175
#	78427
#	95580
#	127652
#	145532
#	157700
#	176625
#	185922
#	194795
#
# Disc length: 2747 seconds
#
# Revision: 3
# Processed by: cddbd v1.5.1PL2 Copyright (c) Steve Scherf et al.
# Submitted via: CDex 1.51
#
DISCID=c40ab90f
DTITLE=Jasper van't Hof - Axioma
DYEAR=2003
DGENRE=Jazz
TTITLE0=The Countdown
TTITLE1=Shadow
TTITLE2=Gnashing
TTITLE3=Uxorious
TTITLE4=Trespass
TTITLE5=Although
TTITLE6=The Improvizer
TTITLE7=Axioma
TTITLE8=Famone Mumone
TTITLE9=Tizzy
TTITLE10=The Parry Game
TTITLE11=Twilight Zodiac
TTITLE12=Zeal
TTITLE13=Boomerang
TTITLE14=Peace Tongues
EXTD=Piano Solos\r\nwww.jaro.de YEAR: 2003
EXTT0=
EXTT1=
EXTT2=
EXTT3=
EXTT4=
EXTT5=
EXTT6=
EXTT7=
EXTT8=
EXTT9=
EXTT10=
EXTT11=
EXTT12=
EXTT13=
EXTT14=
PLAYORDER=
